<?xml version="1.0" encoding="UTF-8" standalone="no"?>
<!-- Created with Inkscape (http://www.inkscape.org/) -->

<svg
   xmlns:dc="http://purl.org/dc/elements/1.1/"
   xmlns:cc="http://creativecommons.org/ns#"
   xmlns:rdf="http://www.w3.org/1999/02/22-rdf-syntax-ns#"
   xmlns:svg="http://www.w3.org/2000/svg"
   xmlns="http://www.w3.org/2000/svg"
   xmlns:sodipodi="http://sodipodi.sourceforge.net/DTD/sodipodi-0.dtd"
   xmlns:inkscape="http://www.inkscape.org/namespaces/inkscape"
   version="1.1"
   id="svg815"
   width="522"
   height="522"
   viewBox="0 0 522 522"
   sodipodi:docname="profpic_square_mask-icon.svg"
   inkscape:version="0.92.4 (5da689c313, 2019-01-14)">
  <metadata
     id="metadata821">
    <rdf:RDF>
      <cc:Work
         rdf:about="">
        <dc:format>image/svg+xml</dc:format>
        <dc:type
           rdf:resource="http://purl.org/dc/dcmitype/StillImage" />
        <dc:title></dc:title>
      </cc:Work>
    </rdf:RDF>
  </metadata>
  <defs
     id="defs819" />
  <sodipodi:namedview
     pagecolor="#ffffff"
     bordercolor="#666666"
     borderopacity="1"
     objecttolerance="10"
     gridtolerance="10"
     guidetolerance="10"
     inkscape:pageopacity="0"
     inkscape:pageshadow="2"
     inkscape:window-width="1920"
     inkscape:window-height="1017"
     id="namedview817"
     showgrid="false"
     inkscape:zoom="1.6245211"
     inkscape:cx="164.65183"
     inkscape:cy="257.47831"
     inkscape:window-x="-8"
     inkscape:window-y="-8"
     inkscape:window-maximized="1"
     inkscape:current-layer="svg815" />
  <path
     style="fill:#000000"
     d="m 268.47644,511.5 c -8.27045,-9.87608 -9.014,-10.5 -12.51321,-10.5 -3.287,0 -4.28764,-0.66265 -8.59176,-5.68967 C 238.31446,484.73213 236,480.31327 236,473.59945 c 0,-6.55376 2.84314,-13.90995 6.03672,-15.6191 2.29956,-1.23069 2.67793,-0.61212 3.52318,5.75967 0.83762,6.31431 3.67741,11.25998 6.46546,11.25998 1.13011,0 3.76705,-1.8 5.85986,-4 3.74417,-3.93594 3.91914,-4 10.92602,-4 7.54023,0 12.35935,1.58217 17.55951,5.76497 l 2.87075,2.30912 5.74016,-5.28705 c 3.15708,-2.90787 7.88793,-6.8483 10.51298,-8.7565 2.62506,-1.90821 10.67515,-9.03014 17.8891,-15.82653 15.65411,-14.74801 23.67046,-19.36604 34.75865,-20.02362 8.88637,-0.527 14.70081,1.32648 24.80339,7.90662 4.57086,2.97714 8.59045,5.44104 8.93243,5.47532 0.34199,0.0343 2.66554,2.07438 5.16347,4.53356 5.85548,5.76468 10.61817,9.16577 10.64751,7.60353 0.0442,-2.35576 4.53858,-8.69942 6.16335,-8.69942 0.91024,0 4.25137,-2.475 7.42474,-5.5 3.17336,-3.025 6.20917,-5.5 6.74624,-5.5 0.53706,0 0.97648,-1.26399 0.97648,-2.80887 0,-4.46958 2.13651,-6.61383 5.84993,-5.87114 2.85462,0.57092 3.15007,0.39788 3.15007,-1.84499 0,-1.36125 0.89193,-3.36693 1.98207,-4.45707 1.59183,-1.59183 2.48367,-1.79135 4.52984,-1.0134 2.2589,0.85883 2.66289,0.65837 3.56296,-1.76793 0.55835,-1.50513 1.65082,-3.22224 2.42771,-3.8158 1.20084,-0.91748 1.1272,-1.59185 -0.4914,-4.5 -1.04716,-1.88144 -2.65495,-4.99305 -3.57288,-6.9147 C 444.66713,394.29822 428.99111,378 427.19596,378 c -0.58365,0 -1.31308,0.7875 -1.62094,1.75 -1.28003,4.0018 -19.38592,20.31143 -23.16401,20.86594 -0.6064,0.089 -3.30946,1.85522 -6.00678,3.92493 -2.69733,2.06971 -6.7324,4.57847 -8.96682,5.57501 -10.08559,4.49815 -14.58751,5.00496 -52.43741,5.90324 -63.26836,1.50154 -83.02122,1.27271 -94,-1.08895 -5.225,-1.12395 -18.275,-3.82671 -29,-6.00613 -22.12807,-4.49663 -25.53999,-5.50431 -39.31178,-11.61039 -7.66957,-3.4005 -10.20422,-4.1303 -11.27075,-3.24515 -2.45746,2.0395 -4.71909,7.3195 -5.32492,12.4315 -0.58482,4.93475 -0.63822,5 -4.09255,5 h -3.5 l -0.30023,-5.19139 c -0.30265,-5.23328 1.90121,-11.38368 5.57728,-15.56474 0.84921,-0.96587 1.35928,-1.89602 1.13349,-2.067 -10.55514,-7.99263 -15.32185,-10.90801 -24.41054,-14.92979 -6.05,-2.67715 -13.14821,-6.24423 -15.77379,-7.92683 l -4.77379,-3.05928 -3.72621,2.5998 C 100.8887,369.08479 92.765613,377.10695 88.944465,382.4278 86.390706,385.98385 85.039717,387 82.865664,387 c -4.957585,0 -5.463178,-4.15762 -1.103726,-9.07621 0.694065,-0.78308 2.523286,-3.06837 4.064935,-5.07842 1.541648,-2.01005 5.698776,-5.97426 9.238062,-8.80935 3.539286,-2.8351 6.554985,-5.48777 6.701545,-5.89482 0.14657,-0.40705 -2.553434,-2.17594 -5.999999,-3.93087 -3.446564,-1.75493 -8.362089,-4.41422 -10.923388,-5.90953 l -4.656907,-2.71874 -8.579833,4.19416 c -4.904753,2.39764 -10.248747,5.91387 -12.476073,8.20897 -4.299697,4.43055 -7.476178,5.10553 -9.166168,1.94775 -0.855267,-1.59808 -0.760006,-2.5955 0.41987,-4.39622 2.375419,-3.62535 9.482321,-8.98834 16.616018,-12.53874 3.575,-1.77926 6.643893,-3.36308 6.819761,-3.51959 0.175869,-0.15652 -0.611631,-2.11026 -1.75,-4.34165 -2.552275,-5.00287 -2.58342,-8.40862 -0.126382,-13.82042 2.918834,-6.42894 6.280382,-7.70423 18.514192,-7.02385 5.772631,0.32104 14.360829,1.66822 20.199169,3.16852 10.10865,2.59766 10.20537,2.60275 20.42614,1.07451 11.92244,-1.78267 17.65761,-1.83183 23.91712,-0.20502 4.07344,1.05866 4.5,1.45389 4.5,4.16952 v 3 l -8,-0.28988 c -9.54262,-0.34577 -17.61695,0.58772 -15.45995,1.78735 0.80297,0.44658 5.8852,2.01567 11.29383,3.48687 10.68862,2.90739 13.80115,2.71547 24.70305,-1.52322 6.18866,-2.40616 14.80746,-3.36718 18.27945,-2.03819 2.28566,0.8749 2.75675,1.59615 2.5,3.82756 -0.30467,2.6477 -0.60335,2.7817 -8.06638,3.61876 -4.2625,0.47809 -7.75,1.20744 -7.75,1.62079 0,0.41335 3.16342,1.06325 7.02983,1.44424 3.86641,0.38099 8.64544,1.36775 10.62008,2.1928 l 3.59024,1.5001 14.17278,-7.11759 c 12.48702,-6.27101 14.49478,-6.99518 16.87993,-6.08835 3.81905,1.45201 3.79311,5.79313 -0.0429,7.16956 -1.5125,0.54272 -6.8,2.95431 -11.75,5.3591 -7.77585,3.77763 -8.65996,4.45332 -6.5,4.96766 6.02776,1.43537 35.89593,4.71358 51,5.59756 9.075,0.53113 18.70738,1.24684 21.4053,1.59048 8.78561,1.11904 86.98183,0.73323 90.68216,-0.44741 1.8769,-0.59885 4.53754,-1.32545 5.91254,-1.61467 6.08832,-1.2806 6.43028,-4.54352 0.47617,-4.54352 -4.61972,0 -6.41297,-3.0632 -3.49909,-5.97708 2.69545,-2.69545 6.54669,-2.55108 12.19781,0.45725 l 4.65898,2.48016 5.83306,-4.33834 c 3.20819,-2.38609 6.92401,-5.52716 8.25738,-6.98017 L 410.34863,329 h -9.13913 c -8.11568,0 -9.259,-0.22397 -10.2095,-2 -0.76049,-1.42099 -0.76049,-2.57901 0,-4 0.97725,-1.82601 2.09382,-2 12.83518,-2 7.81708,0 12.16749,-0.40267 12.96482,-1.2 2.0637,-2.0637 1.33666,-2.8 -2.76482,-2.8 -2.92604,0 -4.24203,-0.51799 -5.02291,-1.97708 C 407.32659,311.87321 410.89859,309 416.5,309 h 4.5 v -5.2899 c 0,-4.80253 -2.18081,-15.57561 -3.62652,-17.91482 -0.32298,-0.52259 -1.54392,-0.10663 -2.72898,0.92974 -1.17947,1.03148 -4.13006,3.20283 -6.55686,4.8252 -4.3456,2.90516 -4.61791,2.94978 -18,2.94978 -9.39076,0 -16.05864,-0.55156 -21.58764,-1.7857 -8.91605,-1.99018 -17.9976,-5.31683 -20.93088,-7.66716 -1.8755,-1.50277 -1.88329,-1.47711 -0.27141,0.89479 0.9127,1.34307 4.68553,5.53531 8.38406,9.31611 5.53291,5.65598 6.53759,7.17258 5.66929,8.55807 -1.76295,2.81302 -5.09354,2.60103 -7.81409,-0.49735 -1.36127,-1.55032 -8.00147,-8.61036 -14.756,-15.68899 -11.66232,-12.2219 -17.4194,-16.55103 -22.08583,-16.60781 -2.55296,-0.0311 -10.10949,-3.61137 -11.72145,-5.55366 -1.03179,-1.24324 -1.08592,-2.05894 -0.22781,-3.433 0.92011,-1.47332 0.49218,-2.78185 -2.34443,-7.1688 -4.33941,-6.7111 -4.83141,-8.65418 -3.97669,-15.70542 0.37741,-3.11359 1.04163,-8.82309 1.47603,-12.68777 0.4344,-3.86468 1.25083,-7.91468 1.8143,-9 0.56346,-1.08532 1.77591,-5.57331 2.69432,-9.97331 0.91841,-4.4 1.87775,-8.9813 2.13187,-10.18067 0.27762,-1.31031 1.35531,-2.30811 2.70015,-2.5 1.28009,-0.18264 2.39936,-1.16422 2.61477,-2.29311 0.57355,-3.00569 6.50084,-9.67048 11.58479,-13.02622 2.49975,-1.65 4.44781,-3.675 4.32902,-4.5 -0.42916,-2.98057 4.38117,-11.0268 7.5824,-12.68305 4.04099,-2.09073 12.29491,-4.29036 16.14759,-4.30326 l 3,-0.0101 -0.34815,-6.18679 c -0.19148,-3.40274 -1.01024,-7.19729 -1.81948,-8.43234 -1.33525,-2.03785 -1.27993,-2.43695 0.59815,-4.31503 3.49936,-3.49936 8.57694,-2.35285 15.8029,3.56828 4.56444,3.74022 7.26658,7.94689 7.26658,11.31258 0,1.58732 0.64362,2.04966 2.85331,2.04966 1.56932,0 5.64743,0.29204 9.06247,0.64899 l 6.20917,0.64898 -5.4477,-7.24154 c -3.61194,-4.80128 -9.26337,-10.2814 -16.77082,-16.26244 C 357.3514,122.19828 358.5007,122.88116 344.5,117.50993 317.66373,107.21445 304.91677,104.86892 289,107.29754 c -14.64528,2.23462 -37.45706,6.06044 -37.8717,6.35156 -0.20444,0.14353 2.76347,3.7687 6.59535,8.05594 6.54517,7.32295 9.72322,12.59129 17.06851,28.29496 4.03507,8.62667 8.20784,19.80949 8.20784,21.99661 0,0.96718 0.68706,2.32871 1.5268,3.02563 8.59948,7.13693 17.95144,35.84619 13.01213,39.94545 -2.39464,1.98738 -4.95643,0.15969 -5.35229,-3.81854 -0.33782,-3.39499 -1.2817,-3.94447 -3.0714,-1.788 -0.8633,1.04021 -0.56502,2.39598 1.26503,5.75 2.38655,4.37393 4.97435,17.80114 3.94685,20.47878 -0.29553,0.77013 -2.26436,2.37089 -4.37518,3.55724 l -3.83785,2.15699 3.07069,2.86845 c 2.7725,2.5899 3.02085,3.31072 2.55738,7.42262 -0.59167,5.24923 -5.16677,11.71502 -8.65544,12.23233 -1.21496,0.18016 -2.45366,0.9651 -2.75267,1.74432 -0.29902,0.77921 -4.2057,3.5568 -8.68153,6.17243 -5.06219,2.95829 -11.92011,8.38033 -18.1452,14.34604 -17.07212,16.36079 -24.07649,20.41795 -52.82341,30.59708 -9.94242,3.52056 -12.23359,3.64966 -13.34554,0.75197 -0.94304,-2.45754 2.48437,-5.04396 9.16163,-6.91363 3.3,-0.92402 9.31601,-3.26297 13.3689,-5.19767 4.0529,-1.9347 9.7739,-4.34508 12.71334,-5.3564 5.40295,-1.85888 18.23705,-10.67538 21.91776,-15.0566 1.1,-1.30935 1.325,-1.91975 0.5,-1.35644 -2.55479,1.7444 -7.85391,3.16889 -26.5,7.12363 -25.28287,5.36237 -38.22596,5.20976 -53,-0.62493 -1.1,-0.43442 -4.7,-1.79213 -8,-3.01714 -3.3,-1.225 -7.35,-2.83098 -9,-3.56884 -12.92383,-5.77939 -19.90459,-9.34803 -25.5,-13.03585 -9.4057,-6.19912 -31.761123,-24.95794 -37.439591,-31.41621 -1.683225,-1.91438 -6.290976,-6.86438 -10.239447,-11 C 67.265147,219.58166 64,213.25007 64,206.06632 c 0,-6.83215 1.532559,-10.32761 6.217458,-14.18079 2.263963,-1.86204 6.849838,-5.79431 10.190834,-8.73837 3.340995,-2.94406 7.6534,-6.16843 9.583122,-7.16526 1.929722,-0.99684 5.305249,-3.66883 7.50117,-5.93776 5.759906,-5.9514 15.088586,-11.69838 22.007416,-13.55777 9.39354,-2.52445 30.43805,-4.46177 48.60648,-4.47462 L 184.71296,152 l 0.11317,-2.75 c 0.0623,-1.5125 0.39333,-4.83954 0.73574,-7.39343 0.37014,-2.76066 0.16544,-5.49758 -0.50484,-6.75 -2.16474,-4.04486 3.25555,-8.99788 8.42649,-7.70006 4.92023,1.2349 18.51648,17.55049 18.51648,22.2199 0,1.16773 0.4628,1.36374 1.75,0.7412 0.9625,-0.4655 8.14061,-0.98652 15.95136,-1.15782 11.33085,-0.2485 14.80754,0.002 17.20034,1.23938 1.64944,0.85295 4.52719,1.55083 6.395,1.55083 4.43141,0 9.25579,2.43143 14.15595,7.13443 6.05207,5.80857 6.23871,6.52512 -4.20245,-16.13443 -4.79382,-10.40361 -11.36408,-18.24716 -26.68439,-31.85572 -16.23957,-14.425101 -17.23789,-14.772473 -49.12617,-17.09377 -12.39769,-0.902485 -17.70169,-0.821293 -30,0.45923 -24.34366,2.534708 -35.93584,6.82009 -48.43964,17.90708 -7.94512,7.04486 -11.096722,8.57772 -13.512986,6.5724 -2.354096,-1.95372 -1.767862,-3.67962 2.262986,-6.66232 2.0625,-1.52618 6.31805,-5.10733 9.45678,-7.95811 16.53886,-15.021532 49.75408,-20.823464 94.11156,-16.439113 7.05008,0.696839 13.09185,0.99347 13.42614,0.659178 1.09627,-1.096274 -1.50407,-14.460787 -3.69374,-18.984042 C 208.60715,64.557036 194.6128,50.381948 189.45305,47.728181 187.55831,46.75368 181.61876,44.96933 176.25404,43.762957 167.77161,41.855503 163.69709,41.580379 145,41.652599 c -18.6077,0.07187 -31.34216,1.041525 -39.72311,3.024674 -2.07483,0.490959 -2.12858,0.702685 -0.8058,3.174386 0.77952,1.456588 3.02062,4.364378 4.98022,6.461756 1.9596,2.097378 4.28898,5.247378 5.17639,7 0.88741,1.752622 2.26794,3.93429 3.06784,4.848151 0.79991,0.913861 1.30814,2.938861 1.12942,4.5 -0.27509,2.402809 -0.77757,2.838434 -3.27408,2.838434 -2.33827,0 -3.63468,-0.932097 -6.25884,-4.5 -5.29737,-7.2025 -10.481601,-13.143772 -11.008886,-12.616487 -0.267934,0.267933 0.233748,1.51638 1.114847,2.774326 0.881099,1.257945 1.615099,3.424546 1.631119,4.814667 0.016,1.390122 0.90291,5.677494 1.97088,9.527494 2.33825,8.429313 2.55849,18.362021 0.50514,22.782119 C 102.68297,98.051953 99.975485,102.65 97.488504,106.5 90.488119,117.33703 89.10768,121.03125 87.111305,134.27064 85.141402,147.33447 82.57803,154.05025 78.746734,156.18496 77.51103,156.87347 72.225,157.67601 67,157.96839 l -9.5,0.53161 3.75,3.68285 c 2.0625,2.02556 3.75,4.5124 3.75,5.52631 0,1.53711 -0.765771,1.82907 -4.607921,1.75686 -4.321312,-0.0812 -4.88817,-0.42496 -9.113619,-5.52632 -2.478134,-2.99183 -9.51707,-10.6382 -15.642079,-16.99192 L 24.5,135.39556 l -7.65214,8.05222 c -7.6641292,8.06484 -13.3068137,14.6658 -15.5390526,18.178 -0.98797001,1.55447 -1.20122545,0.66192 -1.25000003,-5.2317 L 0,149.28816 9.9118913,138.54588 19.823783,127.8036 14.872271,117.61939 C 7.1488855,101.73402 6.5071265,98.542971 6.6026582,76.5 6.6479473,66.05 7.2452405,54.125 7.9299764,50 9.4601837,40.781694 11.71833,24.952646 13.493654,11 14.22846,5.225 14.867991,0.3875 14.914833,0.25 14.961675,0.1125 23.815728,0 34.590508,0 h 19.590507 l 5.267306,4.5 c 2.897018,2.475 5.586315,4.5 5.976214,4.5 0.3899,0 2.141384,1.07127 3.892187,2.380601 1.750803,1.30933 6.333278,4.071447 10.183278,6.138036 14.872346,7.983127 24.11834,12.879242 27,14.297562 1.65,0.812111 3.67818,2.0565 4.50706,2.765311 1.20267,1.028451 4.43428,1.079359 16,0.252053 26.65873,-1.906922 55.24791,0.633265 65.25267,5.79779 1.78215,0.919955 6.16527,4.424017 9.74027,7.786804 11.83621,11.133611 9.97717,10.711448 17.21147,3.908486 13.3828,-12.584875 19.97103,-15.691385 37.05453,-17.472135 8.72588,-0.909567 14.45614,-0.91778 24.32449,-0.03486 12.58918,1.126351 13.17005,1.284943 23.40951,6.391477 12.27466,6.121509 16.1255,8.815076 25.19365,17.622336 l 6.69366,6.501076 3.93411,-3.417267 c 2.16376,-1.8795 5.83042,-4.99227 8.14814,-6.91727 2.31772,-1.925 4.96023,-4.18595 5.87224,-5.024334 0.91201,-0.838383 6.8332,-5.043803 13.1582,-9.345376 17.71228,-12.045957 43.93019,-31.6059725 50.10437,-37.3806313 3.22142,-3.01297492 4.11926,-3.33812274 8.45078,-3.06039775 L 430.40158,0.5 432.6956,14 c 4.00064,23.543208 4.26437,26.165087 4.28459,42.594774 0.0168,13.622565 -0.29287,17.001836 -2.01583,22 -1.1196,3.247874 -2.18743,6.805226 -2.37294,7.905226 -1.15181,6.829718 -12.02998,32.35246 -16.27429,38.18328 -1.27442,1.7508 -2.31713,3.60452 -2.31713,4.11937 0,0.51485 -1.7346,3.13238 -3.85466,5.81672 -2.12006,2.68435 -4.0397,5.33063 -4.26586,5.88063 -1.7338,4.21636 -5.35282,8.5 -7.1812,8.5 -1.83553,0 -1.60108,0.51522 1.83634,4.03546 2.16729,2.2195 6.19611,5.07715 8.95295,6.35034 5.8889,2.71967 18.26615,13.88481 20.98135,18.92663 l 1.8959,3.52048 -2.676,3.50843 c -2.49364,3.26932 -2.63869,4.00764 -2.12839,10.83354 0.30118,4.02882 0.16763,12.01753 -0.29679,17.75269 -0.98049,12.10806 0.13502,20.07243 2.8114,20.07243 2.28093,0 2.78771,0.74389 9.87801,14.5 3.40183,6.6 8.1454,14.54477 10.54127,17.65504 2.39586,3.11027 5.03896,6.93527 5.87356,8.5 0.83459,1.56473 3.68074,5.49166 6.32478,8.72652 2.64404,3.23486 5.25734,6.61851 5.80734,7.51922 5.12967,8.40065 10.83386,15.95326 12.3479,16.34919 1.2777,0.33413 2.65912,2.92148 4.4672,8.36687 1.43962,4.33574 3.70893,10.13316 5.0429,12.88316 2.47144,5.09491 2.2244,7.95554 -0.78682,9.11106 -1.06187,0.40748 -1.05796,1.17029 0.0215,4.19351 1.72442,4.82945 1.74884,9.12713 0.0555,9.77692 -1.82717,0.70114 -0.93251,5.32483 1.56163,8.07065 2.79248,3.07426 2.04114,6.76145 -1.45988,7.16428 -1.5125,0.17403 -2.75,0.9101 -2.75,1.6357 0,0.72559 -0.67223,2.6082 -1.49384,4.18357 -0.82161,1.57537 -1.49661,4.03207 -1.5,5.45932 -0.003,1.42726 -0.8616,3.36918 -1.90713,4.31537 -1.04554,0.9462 -2.17671,3.19016 -2.51372,4.98658 -0.33701,1.79643 -1.73158,4.23903 -3.09903,5.42802 -1.36745,1.18899 -2.48628,2.81658 -2.48628,3.61688 0,0.8003 -1.13882,2.68391 -2.53072,4.18578 -1.39189,1.50188 -3.02224,4.68272 -3.62299,7.06852 -0.60075,2.38581 -1.50878,4.59525 -2.01784,4.90987 -0.54309,0.33564 -0.4624,1.13011 0.19525,1.92253 0.61645,0.74277 0.9758,2.61521 0.79856,4.16097 -0.25699,2.24128 -0.89145,2.87574 -3.13273,3.13273 -1.54576,0.17724 -3.34576,-0.12036 -4,-0.66134 C 458.28578,420.00018 453,420.80805 453,422.18333 453,423.62242 443.78025,434 442.50172,434 c -0.61425,0 -1.92998,1.84306 -2.92384,4.09569 C 437.05747,443.80832 432.26825,449 429.51885,449 c -1.25068,0 -2.83416,0.675 -3.51885,1.5 -0.68469,0.825 -2.08269,1.5 -3.10667,1.5 -1.02398,0 -3.28552,1.27211 -5.02564,2.82692 l -3.16387,2.82691 3.89809,2.38543 c 7.55603,4.6239 23.63805,21.62564 32.12361,33.96074 1.7026,2.475 7.19981,8.94311 12.21601,14.37357 5.01621,5.43047 9.57228,10.71797 10.12461,11.75 0.9102,1.70074 0.603,1.87442 -3.28096,1.85495 -4.16696,-0.0209 -4.54119,-0.30771 -13.56468,-10.39634 -5.10372,-5.70617 -11.58119,-13.45901 -14.39438,-17.22852 -11.02522,-14.77318 -25.49617,-28.91369 -32.68088,-31.93464 -1.59783,-0.67183 -3.21217,-1.7183 -3.58742,-2.32547 C 404.57157,458.49777 387.62,445.15032 380,439.96966 c -7.10823,-4.83272 -14.69737,-7.88613 -19.72717,-7.93701 -4.9067,-0.0496 -16.05567,4.55192 -21.7172,8.96343 -2.7806,2.16666 -8.76724,7.54488 -13.30365,11.95161 -8.19798,7.96363 -10.31249,11.44997 -12.16199,20.05231 -0.41387,1.925 -1.43916,4.85 -2.27842,6.5 -0.83926,1.65 -1.82055,4.54547 -2.18063,6.43438 -0.36008,1.88891 -1.34485,4.197 -2.18838,5.12909 -1.41945,1.56847 -1.11971,1.74642 4.02418,2.38911 9.06957,1.13317 13.45088,-0.83543 25.53326,-11.47253 4.125,-3.63157 8.985,-7.63439 10.80001,-8.89516 4.2678,-2.96456 12.23491,-5.05805 19.30619,-5.07302 4.88838,-0.0103 6.19959,0.44122 10.24065,3.5268 5.25534,4.01275 6.18061,6.42751 5.22451,13.63496 l -0.67219,5.06716 5.30042,-4.4148 c 12.03851,-10.02706 14.41082,-11.20527 16.78984,-8.33872 1.84999,2.22909 0.72075,3.93333 -5.67873,8.57034 -3.19589,2.31571 -8.2857,6.5542 -11.3107,9.41888 -8.80348,8.33689 -16.94868,14.13016 -25,17.78123 -4.125,1.87058 -9.44079,4.62634 -11.81286,6.1239 -3.41594,2.15658 -5.2876,2.65998 -9,2.4206 L 335.5,521.5 l 4.05413,-4 c 2.51966,-2.48603 8.67018,-6.26141 16.25,-9.97477 C 362.51186,504.2391 368,501.05583 368,500.4513 c 0,-0.60453 1.575,-4.73358 3.5,-9.17567 4.47133,-10.31795 4.44856,-11.58294 -0.25,-13.88529 -8.94934,-4.38527 -18.72075,-0.97654 -32.17084,11.2227 -9.03645,8.19608 -14.55251,11.33004 -20.00347,11.365 l -3.42432,0.022 2.09823,2.25 c 2.50866,2.69012 7.59845,15.75 6.1382,15.75 -0.5675,0 -0.74008,0.89006 -0.3878,2 0.56184,1.77019 0.1797,2 -3.32562,2 -4.33565,0 -5.15941,-1.00376 -5.19634,-6.33179 -0.0281,-4.05925 -3.03661,-10.58411 -6.09612,-13.22146 -1.31006,-1.12929 -4.50727,-2.58681 -7.10492,-3.23894 l -4.72299,-1.18569 -4.4722,4.34648 c -2.45971,2.39056 -4.77064,5.53558 -5.13541,6.98894 -0.89404,3.56215 -3.03871,3.33153 -5.04188,-0.54217 -2.08628,-4.03443 -1.49654,-13.85943 1.32651,-22.09957 l 1.98165,-5.7842 -2.60634,-1.85141 C 278.94096,476.12132 273.05593,474 269.01273,474 c -4.92172,0 -8.49384,2.91417 -9.77916,7.97794 -0.95854,3.77635 -0.78476,4.4047 2.70458,9.77886 2.05093,3.15876 7.42824,10.0182 11.9496,15.2432 4.52135,5.225 8.88281,10.7375 9.69213,12.25 l 1.47148,2.75 h -3.89099 c -3.71599,0 -4.28645,-0.47224 -12.68393,-10.5 z M 461.08179,400 C 461.5868,400 462,399.34818 462,398.55152 c 0,-0.79666 1.125,-2.66237 2.5,-4.14602 1.77859,-1.91913 2.5,-3.82344 2.5,-6.59927 0,-2.87733 0.65637,-4.51004 2.5,-6.21865 1.375,-1.27431 2.5,-3.07431 2.5,-4 0,-0.92569 1.0661,-2.67409 2.3691,-3.88533 3.7374,-3.47417 5.14911,-13.42115 2.28833,-16.12363 -11.31228,-10.68628 -27.19332,-20.5292 -36.56627,-22.66345 -3.13494,-0.71383 -3.87717,-0.36887 -9.23722,4.29316 -3.2056,2.78815 -7.01082,6.61963 -8.45602,8.5144 l -2.62766,3.44503 3.05354,3.16612 c 3.28396,3.40505 5.1762,7.44239 5.1762,11.04413 0,2.18007 3.69529,6.40214 7.24035,8.2725 3.01237,1.5893 15.51629,16.25657 18.76269,22.00887 2.2082,3.91271 3.55262,5.34137 4.63541,4.92587 C 459.47727,400.26336 460.57677,400 461.08179,400 Z m 17.58455,-52.42712 c -0.3012,-0.78491 -0.0492,-2.74767 0.56005,-4.36169 0.92702,-2.45596 0.77461,-3.48722 -0.93446,-6.32289 -1.12317,-1.86356 -1.84474,-3.92409 -1.60348,-4.57894 0.45687,-1.2401 -7.16802,-5.17902 -14.18845,-7.32956 -2.2,-0.67392 -4.78139,-1.62007 -5.73643,-2.10256 -0.95504,-0.48248 -2.75504,-0.89319 -4,-0.91268 C 451.51861,321.94508 449.375,321.28602 448,320.5 c -3.78488,-2.16364 -4.49378,-1.84858 -5.65843,2.51482 -1.03307,3.8704 -0.97755,4.03765 1.5434,4.64908 4.66283,1.13094 19.18672,8.20745 22.69867,11.05953 1.88043,1.52711 5.33088,4.45846 7.66766,6.5141 4.71375,4.14663 5.21103,4.40967 4.41504,2.33535 z m -1.8401,-30.64148 c -0.5313,-1.52408 -1.54851,-2.99458 -2.26047,-3.26779 -1.43509,-0.55069 -8.87046,-10.8749 -12.56085,-17.44106 C 460.69966,293.90015 459.32937,292 458.95983,292 c -0.78021,0 -8.30058,-9.88442 -10.0654,-13.22947 -0.65885,-1.24879 -3.12154,-4.74553 -5.47264,-7.77053 -2.35111,-3.025 -6.96153,-10.61943 -10.24538,-16.87651 -5.2442,-9.99239 -6.10053,-11.13379 -7.03833,-9.38149 -0.58724,1.09727 -0.8414,2.22134 -0.5648,2.49794 0.2766,0.2766 -3.3428,3.99431 -8.0431,8.26157 l -8.54601,7.75866 5.39805,6.14846 c 5.4656,6.2254 12.61732,18.36816 12.61834,21.42442 3e-4,0.91682 2.98063,4.33192 6.62295,7.5891 3.64232,3.25718 7.2083,7.3244 7.9244,9.03826 1.10866,2.6534 2.24122,3.38402 7.62704,4.9202 3.47878,0.99225 10.04758,3.00003 14.59734,4.46174 4.54976,1.46171 9.56552,2.7032 11.14612,2.75887 2.71677,0.0957 2.82103,-0.0502 1.90783,-2.66982 z M 259.5,246 c 4.17726,-2.2 8.58614,-4.00689 9.79751,-4.01531 4.56962,-0.0318 4.8888,-1.28212 1.79897,-7.04707 C 269.49356,231.94693 267.1766,225.675 265.94768,221 262.20443,206.76004 260.39294,204.51438 252,203.70933 c -3.025,-0.29016 -10.60753,-1.04843 -16.85006,-1.68505 -6.24253,-0.63662 -11.52693,-0.98062 -11.74311,-0.76445 -0.21617,0.21618 0.56362,2.37312 1.73288,4.79321 2.43902,5.04818 4.61373,23.21791 3.48905,29.15099 -0.38618,2.03722 -2.21516,5.95237 -4.06441,8.70035 -2.13221,3.16844 -2.94193,5.16852 -2.21331,5.46702 0.63193,0.25889 7.54008,0.50623 15.35145,0.54965 L 251.90498,250 Z m 138.06658,-3.41622 c 5.74131,-2.61218 10.29366,-6.94645 16.32134,-15.53951 l 4.15643,-5.9254 -9.03799,-5.95415 C 399.85593,209.13649 391.59788,206.12638 379.5,204.40948 l -5,-0.70959 3.66747,4.06158 c 4.78674,5.30114 5.58894,6.91582 6.36697,12.81556 0.58973,4.47186 -0.56253,16.70237 -2.18114,23.15144 l -0.64448,2.56782 5.39559,-0.70366 c 2.96757,-0.38702 7.67555,-1.741 10.46217,-3.00885 z M 318,235.46845 c 0,-7.19548 2.57328,-16.1128 6.76132,-23.43028 l 2.59734,-4.53817 -2.77293,2.5 c -5.72831,5.1645 -11.42478,14.00989 -13.99753,21.73516 -1.42351,4.27441 -2.5882,8.07633 -2.5882,8.4487 0,0.7569 3.09574,1.47424 7.25,1.67996 2.73321,0.13535 2.75,0.0963 2.75,-6.39537 z M 342.8,237.8 c 1.64219,-1.64219 1.50959,-5.29817 -0.24496,-6.75432 -3.7211,-3.08824 -10.67059,2.70031 -7.63423,6.3589 1.55848,1.87785 6.16555,2.10906 7.87919,0.39542 z m 30.53989,-5.62308 c 0.90743,-1.0027 1.92531,-3.83265 2.26196,-6.28878 0.77412,-5.64778 -0.73496,-7.06878 -8.16095,-7.6846 -7.14168,-0.59224 -8.4409,0.54094 -8.4409,7.3622 0,4.3648 0.39934,5.60056 2.22251,6.87756 3.10997,2.17831 10.04289,2.0259 12.11738,-0.26638 z m -194.16863,-1.83191 c 2.26919,-2.05358 2.3248,-4.13939 0.17375,-6.51627 -2.02576,-2.23844 -4.19669,-2.32136 -7.1225,-0.27204 -2.41791,1.69357 -2.93181,5.334 -1.02251,7.2433 1.71585,1.71585 5.83213,1.4809 7.97126,-0.45499 z m 27.15646,-0.70858 c 6.65726,-2.78158 8.8698,-10.7627 4.03742,-14.56385 C 204.06551,210.11729 195,214.42436 195,222.37264 c 0,2.72901 0.69031,4.73326 2.17431,6.31291 2.49699,2.65792 4.55598,2.87181 9.15341,0.95088 z M 149.2039,215.10208 c 0.62637,-2.41885 2.63376,-6.35635 4.46087,-8.75 L 156.98679,202 l -3.2434,0.0173 c -4.192,0.0224 -20.02608,1.66319 -30.23887,3.13347 -7.99281,1.15069 -7.99431,1.15147 -4.5,2.3628 4.87642,1.69043 20.78179,9.84119 24.99548,12.80901 3.00122,2.11385 3.54026,2.23088 3.78252,0.82127 0.15539,-0.90413 0.79501,-3.62294 1.42138,-6.0418 z m 193.2394,3.67541 C 345.50514,214.4061 343.84131,210 339.12874,210 c -4.92364,0 -8.20476,6.52398 -4.92874,9.8 1.98905,1.98905 6.5283,1.42599 8.2433,-1.02251 z M 176.8,214.8 c 0.66,-0.66 1.2,-2.37 1.2,-3.8 0,-4.80228 -4.51753,-6.65159 -8.17126,-3.34501 C 166.19759,210.94113 168.12005,216 173,216 c 1.43,0 3.14,-0.54 3.8,-1.2 z M 349.32181,107.75 c -0.34551,-1.7875 -2.0386,-6.4 -3.76242,-10.25 C 333.11371,69.703734 324.40094,59.951119 301.5,48.182264 c -9.53351,-4.899297 -10.54853,-5.191561 -21.75875,-6.265175 -8.87737,-0.850194 -14.24788,-0.836773 -21.91666,0.05477 -16.06546,1.867709 -23.04287,5.157655 -34.80623,16.411633 l -6.14979,5.883494 2.07328,4.819476 c 1.29785,3.01693 2.31222,8.185687 2.71214,13.819725 0.61318,8.638547 0.74738,9.038081 3.33942,9.941669 1.48531,0.517781 6.18963,4.079508 10.45405,7.914954 7.48436,6.73147 7.88017,6.94508 11.40302,6.15419 2.00723,-0.45064 8.37452,-1.54227 14.14952,-2.42586 5.775,-0.88359 13.65,-2.23352 17.5,-2.99986 21.751,-4.329488 41.67419,-2.153075 63,6.88213 8.00109,3.38986 8.58848,3.34305 7.82181,-0.62341 z m 52.21538,410.21192 c 4.13223,-4.2318 6.92469,-4.79242 8.81864,-1.77046 1.89775,3.02802 -1.7948,5.80854 -7.71377,5.80854 H 397.5941 Z M 169.19293,463.04708 C 167.95389,461.37119 166.23085,460 165.36397,460 c -0.86689,0 -3.28068,-1.35 -5.36397,-3 -2.08329,-1.65 -4.68045,-3 -5.77146,-3 -1.09101,0 -2.54385,-0.675 -3.22854,-1.5 -0.68469,-0.825 -2.06743,-1.5 -3.07275,-1.5 -1.00533,0 -2.19021,-0.64746 -2.63307,-1.43881 C 144.18354,447.57659 128.22716,437 126.34373,437 c -0.84055,0 -2.67244,-0.9 -4.07086,-2 -1.39842,-1.1 -3.39117,-2 -4.42834,-2 -1.09838,0 -3.21012,-1.8789 -5.05764,-4.5 -1.74454,-2.475 -3.64777,-4.5044 -4.22939,-4.50977 -2.30545,-0.0213 -11.295686,-4.86384 -14.552886,-7.83883 C 92.106929,414.41813 89.732218,413 88.727479,413 86.261953,413 81.916483,410.67018 79.592652,408.10238 78.546207,406.94607 76.830186,406 75.779271,406 c -2.387941,0 -5.590877,-1.6225 -8.578618,-4.34564 -1.626786,-1.48271 -3.336529,-2.00635 -5.845257,-1.79021 -3.930957,0.33867 -6.940758,-1.83915 -10.499362,-7.59709 C 49.526513,390.11585 48.054374,389 46.545801,389 45.111624,389 42.703312,387.31692 40.106765,384.5 37.413739,381.57841 35.120318,380 33.568299,380 30.910557,380 28.794172,377.75021 22,367.70251 18.916361,363.14221 16.850706,361.04011 15.437091,361.0238 12.215631,360.9866 8.4564606,356.2677 4.0494626,346.72877 0.15087457,338.2903 -1.343343,329.94827 0.80583414,328.62 c 1.59062206,-0.98306 5.54759886,1.93811 6.61038596,4.88 1.8421048,5.09911 3.6073529,7.55846 6.1075169,8.50902 1.321173,0.50231 3.585849,2.84327 5.032613,5.20214 1.446763,2.35886 3.863707,6.08884 5.370986,8.28884 1.507279,2.2 3.044035,4.83419 3.415015,5.85375 0.409464,1.12534 1.264024,1.62754 2.174762,1.27806 2.745339,-1.05349 6.466803,1.27337 9.377763,5.86348 2.062752,3.25262 3.043113,4.10869 3.460277,3.02158 0.790877,-2.06099 4.988895,-1.918 6.844258,0.23313 0.830163,0.9625 2.115712,3.16947 2.856775,4.90438 1.20272,2.8157 1.694617,3.09804 4.581334,2.62959 2.958608,-0.48012 3.516121,-0.11714 6.548213,4.26329 1.822847,2.63345 4.298214,5.95014 5.500816,7.37041 2.088714,2.46679 2.247824,2.49978 3.556028,0.73736 2.798807,-3.77057 7.157564,-1.08895 9.194982,5.65699 0.490697,1.62471 0.761482,1.66197 2.619547,0.36053 3.054842,-2.13969 5.568137,-0.98774 8.404496,3.85214 1.388529,2.36935 4.636045,6.11271 7.216701,8.31859 4.142807,3.54117 4.912127,3.85657 6.571587,2.69424 2.56874,-1.79921 5.55439,-0.81669 7.20237,2.37017 0.82803,1.60122 2.29924,2.72133 3.70996,2.82457 1.28578,0.0941 3.28077,1.26213 4.43332,2.59561 1.35194,1.56418 2.59391,2.15422 3.5,1.66278 2.33629,-1.26712 5.75731,0.72469 7.24007,4.21536 1.84403,4.34119 5.35276,7.97394 11.24231,11.63969 4.21551,2.6238 5.04953,2.82823 6.73167,1.65001 2.51575,-1.7621 4.45293,-1.0004 8.62221,3.39026 1.88749,1.98772 3.91249,3.67462 4.5,3.74868 0.58751,0.0741 1.77991,0.18656 2.64979,0.25 0.86987,0.0634 3.05962,2.39635 4.86612,5.18425 1.80649,2.78789 4.38581,5.4876 5.73182,5.99936 2.01372,0.76561 2.39176,1.50634 2.13388,4.1811 -0.28214,2.92629 -0.66535,3.28028 -3.84054,3.54772 -2.946,0.24813 -3.89832,-0.20497 -5.77994,-2.75 z m 74.84694,-121.49904 c -2.65646,-3.20083 1.24523,-8.11777 4.71013,-5.93574 3.46233,2.18041 2.22883,7.3877 -1.75,7.3877 -0.96531,0 -2.29737,-0.65338 -2.96013,-1.45196 z m 117,0 c -2.65646,-3.20083 1.24523,-8.11777 4.71013,-5.93574 3.46233,2.18041 2.22883,7.3877 -1.75,7.3877 -0.96531,0 -2.29737,-0.65338 -2.96013,-1.45196 z m -59.08268,-2.87489 C 290.96696,335.0339 276,321.96543 276,316.0085 c 0,-4.93607 1.61726,-6.83018 8.68179,-10.16802 6.28713,-2.97052 7.29949,-3.13441 22.32276,-3.61378 13.30836,-0.42464 16.21988,-0.2494 18.8662,1.13558 1.72109,0.90075 4.51236,2.3622 6.20282,3.24767 1.69047,0.88547 3.3436,2.31359 3.67361,3.1736 0.33002,0.86002 1.43044,2.39407 2.44538,3.40901 1.79379,1.79379 1.78196,1.95762 -0.42361,5.86437 -2.50462,4.43647 -12.31173,15.15464 -17.09651,18.68474 -2.42396,1.78834 -4.32129,2.24234 -9.11672,2.18148 -3.33065,-0.0423 -7.64999,-0.60477 -9.59853,-1.25 z m 37.08268,-0.12511 c -2.65646,-3.20083 1.24523,-8.11777 4.71013,-5.93574 3.46233,2.18041 2.22883,7.3877 -1.75,7.3877 -0.96531,0 -2.29737,-0.65338 -2.96013,-1.45196 z m -73,-2 c -2.65646,-3.20083 1.24523,-8.11777 4.71013,-5.93574 3.46233,2.18041 2.22883,7.3877 -1.75,7.3877 -0.96531,0 -2.29737,-0.65338 -2.96013,-1.45196 z m -14,-12 c -2.65646,-3.20083 1.24523,-8.11777 4.71013,-5.93574 3.46233,2.18041 2.22883,7.3877 -1.75,7.3877 -0.96531,0 -2.29737,-0.65338 -2.96013,-1.45196 z m 103,-2 c -2.65646,-3.20083 1.24523,-8.11777 4.71013,-5.93574 3.46233,2.18041 2.22883,7.3877 -1.75,7.3877 -0.96531,0 -2.29737,-0.65338 -2.96013,-1.45196 z M 57.2,320.8 c -2.161043,-2.16104 -1.268741,-4.60095 3.05,-8.33991 5.744615,-4.97341 20.086418,-10.93498 31.459677,-13.07708 8.807903,-1.65893 9.439963,-1.66194 11.049373,-0.0525 2.21638,2.21639 0.6834,4.88025 -3.363285,5.8444 -1.592671,0.37946 -5.916617,1.3734 -9.608769,2.20874 -9.316034,2.10775 -22.981286,8.16597 -26.349348,11.68147 C 60.37194,322.26499 59.036442,322.63644 57.2,320.8 Z m 15.046532,-28.95347 c -1.59944,-1.59944 -1.59777,-4.31212 0.0035,-5.63201 C 73.609423,285.09395 90.221029,282 94.878,282 c 3.610243,0 5.93233,2.4918 4.475033,4.8021 -0.700757,1.11093 -4.205546,2.16109 -10.942011,3.27861 -5.451062,0.90428 -11.037582,1.95199 -12.41449,2.32825 -1.526581,0.41716 -2.989881,0.19769 -3.75,-0.56243 z M 0,241.43475 c 0,-5.81577 0.15212134,-6.16763 4.5196802,-10.45406 2.503108,-2.45662 4.2894115,-5.03581 4.0035861,-5.78065 -0.6749545,-1.75891 0.9832854,-4.82532 5.0982467,-9.42768 1.833083,-2.0502 3.088819,-4.36365 2.790524,-5.14099 -0.298295,-0.77735 0.845094,-2.99357 2.540865,-4.92495 1.69577,-1.93137 3.573879,-4.9191 4.173576,-6.63939 0.599696,-1.72029 2.279069,-3.75412 3.731939,-4.51963 1.452871,-0.76551 4.358778,-3.02886 6.457572,-5.02967 4.90843,-4.67928 9.022059,-4.6711 9.481452,0.0188 0.243972,2.49071 -0.378028,3.56929 -3.460105,6 -6.561388,5.1747 -10.109941,9.29015 -12.676628,14.70179 -1.372548,2.89389 -3.657705,6.96911 -5.078125,9.05604 C 20.162162,221.38133 19,223.76618 19,224.59407 c 0,2.96978 -2.983748,7.0335 -10.9273202,14.88247 L 0,247.45308 Z"
     id="path831"
     inkscape:connector-curvature="0" />
</svg>
