<?xml version="1.0" encoding="UTF-8" standalone="no"?>
<!-- Created with Inkscape (http://www.inkscape.org/) -->

<svg
   xmlns:dc="http://purl.org/dc/elements/1.1/"
   xmlns:cc="http://creativecommons.org/ns#"
   xmlns:rdf="http://www.w3.org/1999/02/22-rdf-syntax-ns#"
   xmlns:svg="http://www.w3.org/2000/svg"
   xmlns="http://www.w3.org/2000/svg"
   xmlns:sodipodi="http://sodipodi.sourceforge.net/DTD/sodipodi-0.dtd"
   xmlns:inkscape="http://www.inkscape.org/namespaces/inkscape"
   width="267.98889mm"
   height="26.072702mm"
   viewBox="0 0 267.98889 26.072702"
   version="1.1"
   id="svg8"
   inkscape:version="0.92.4 (5da689c313, 2019-01-14)"
   sodipodi:docname="header.svg">
  <defs
     id="defs2" />
  <sodipodi:namedview
     id="base"
     pagecolor="#ffffff"
     bordercolor="#666666"
     borderopacity="1.0"
     inkscape:pageopacity="0.0"
     inkscape:pageshadow="2"
     inkscape:zoom="0.98994949"
     inkscape:cx="694.5425"
     inkscape:cy="-175.75063"
     inkscape:document-units="mm"
     inkscape:current-layer="layer1"
     showgrid="false"
     inkscape:window-width="1920"
     inkscape:window-height="1017"
     inkscape:window-x="-8"
     inkscape:window-y="-8"
     inkscape:window-maximized="1"
     fit-margin-top="0"
     fit-margin-left="0"
     fit-margin-right="0"
     fit-margin-bottom="0"
     inkscape:pagecheckerboard="true" />
  <metadata
     id="metadata5">
    <rdf:RDF>
      <cc:Work
         rdf:about="">
        <dc:format>image/svg+xml</dc:format>
        <dc:type
           rdf:resource="http://purl.org/dc/dcmitype/StillImage" />
        <dc:title></dc:title>
      </cc:Work>
    </rdf:RDF>
  </metadata>
  <g
     inkscape:groupmode="layer"
     id="layer2"
     inkscape:label="Text shadow"
     style="opacity:0.8"
     transform="translate(-14.533386,-81.754417)">
    <flowRoot
       xml:space="preserve"
       id="flowRoot26-6"
       style="font-style:normal;font-variant:normal;font-weight:normal;font-stretch:normal;font-size:40px;line-height:1.25;font-family:Optima;-inkscape-font-specification:Optima;letter-spacing:0px;word-spacing:0px;fill:#333333;fill-opacity:1;stroke:none"
       transform="matrix(0.63384774,0,0,0.63384774,-69.336027,-91.501753)"><flowRegion
         id="flowRegion28-4"
         style="fill:#333333"><rect
           id="rect30-2"
           width="1334.2858"
           height="488.57144"
           x="125.71429"
           y="268.23398"
           style="fill:#333333" /></flowRegion><flowPara
         id="flowPara32-1"
         style="font-style:normal;font-variant:normal;font-weight:normal;font-stretch:normal;font-family:'Futurist Fixed-width';-inkscape-font-specification:'Futurist Fixed-width';fill:#333333">masterdesky</flowPara></flowRoot>  </g>
  <g
     inkscape:label="Text"
     inkscape:groupmode="layer"
     id="layer1"
     transform="translate(-14.533386,-168.75442)">
    <flowRoot
       xml:space="preserve"
       id="flowRoot10"
       style="font-style:normal;font-variant:normal;font-weight:normal;font-stretch:normal;font-size:40px;line-height:1.25;font-family:'Futurist Fixed-width';-inkscape-font-specification:'Futurist Fixed-width';letter-spacing:0px;word-spacing:0px;fill:#000000;fill-opacity:1;stroke:none"
       transform="scale(0.26458333)"><flowRegion
         id="flowRegion12"
         style="font-style:normal;font-variant:normal;font-weight:normal;font-stretch:normal;font-family:'Futurist Fixed-width';-inkscape-font-specification:'Futurist Fixed-width'"><rect
           id="rect14"
           width="1188.5714"
           height="557.14288"
           x="48.57143"
           y="271.09113"
           style="font-style:normal;font-variant:normal;font-weight:normal;font-stretch:normal;font-family:'Futurist Fixed-width';-inkscape-font-specification:'Futurist Fixed-width'" /></flowRegion><flowPara
         id="flowPara16" /></flowRoot>    <flowRoot
       xml:space="preserve"
       id="flowRoot18"
       style="font-style:normal;font-variant:normal;font-weight:normal;font-stretch:normal;font-size:40px;line-height:1.25;font-family:Optima;-inkscape-font-specification:Optima;letter-spacing:0px;word-spacing:0px;fill:#000000;fill-opacity:1;stroke:none"
       transform="scale(0.26458333)"><flowRegion
         id="flowRegion20"><rect
           id="rect22"
           width="1491.4286"
           height="522.85712"
           x="85.714287"
           y="231.09111" /></flowRegion><flowPara
         id="flowPara24" /></flowRoot>    <g
       aria-label="masterdesky"
       transform="matrix(0.63384775,0,0,0.63384775,-70.018636,-5.0684242)"
       style="font-style:normal;font-variant:normal;font-weight:normal;font-stretch:normal;font-size:40px;line-height:1.25;font-family:Optima;-inkscape-font-specification:Optima;letter-spacing:0px;word-spacing:0px;fill:#ffcc00;fill-opacity:1;stroke:none"
       id="flowRoot26">
      <path
         d="m 159.55484,305.55437 h -3.4 v -13.44 q 0,-0.36 -0.24,-0.8 -0.24,-0.44 -0.36,-0.68 -0.64,-0.64 -1.32,-0.91999 -0.68,-0.28001 -1.44,-0.28001 -1.56,0 -2.88,1.2 -1.32,1.2 -1.72,2.96001 v 11.95999 h -3.36 v -12.52 q -0.24,-1.68 -1.28,-2.64 -1,-1 -2.52,-1 -0.72,0 -1.52,0.24 -1.04,0.44 -1.8,1.32 -0.76,0.88 -1.16,2.04 v 12.56 h -3.16 v -18.6 h 3.08 v 3.20001 q 0.84,-1.56 2.2,-2.56 1.36,-1.04001 3.08,-1.04001 0.2,-0.04 0.6,-0.04 1.84,0 3.24,1.12 1.44,1.12 2.08,2.92 0.76,-1.83999 2.44,-2.92 1.72,-1.12 3.72,-1.12 1.44,0 2.64,0.6 1.24,0.56 2.16,1.8 0.72,0.84 0.92,2.04 z"
         style="font-style:normal;font-variant:normal;font-weight:normal;font-stretch:normal;font-family:'Futurist Fixed-width';-inkscape-font-specification:'Futurist Fixed-width';fill:#ffcc00"
         id="path24" />
      <path
         d="m 194.51484,305.55437 h -3 v -3.68 q -1,1.96 -3.04,3.08 -2.04,1.08 -4.28,1.08 -1.12,0 -2.16,-0.24 -1.04,-0.24 -2.64,-1.24 -1.6,-1 -2.88,-3.36 -1.24,-2.36 -1.24,-5.03999 0,-2.24001 0.96,-4.36001 0.68,-1.32 2.2,-3 1.56,-1.72 4.48,-2.24 0.32,0 0.68,-0.04 0.4,-0.04 0.6,-0.04 2.24,0 4.08,1 1.88,1 3.16,2.92 v -3.44 h 3.08 z m -3.76,-5.92 q 0.6,-1.52 0.6,-3.2 0,-2.24 -1.04,-4 -1.04,-1.76 -3.12,-2.6 -0.72,-0.2 -1.76,-0.23999 -1.04,-0.04 -1.2,-0.04 -2.56,0.4 -4.12,2.52 -1.56,2.08001 -1.56,4.6 0,1.56 0.56,2.88 0.6,1.28 2.12,2.52 1.52,1.20001 3.76,1.20001 1.88,0 3.4,-0.92001 1.52,-0.96 2.36,-2.72 z"
         style="font-style:normal;font-variant:normal;font-weight:normal;font-stretch:normal;font-family:'Futurist Fixed-width';-inkscape-font-specification:'Futurist Fixed-width';fill:#ffcc00"
         id="path26" />
      <path
         d="m 233.51484,289.99437 -2.64,1.56 q -0.32,-1.12 -1.64,-1.83999 -1.28,-0.76001 -2.76,-0.76001 -1.04,0 -1.84,0.44 -0.8,0.4 -1.08,1.12 -0.24,0.68 -0.24,1.12 0,1.04 1.2,2.04 l 6.24,2.2 q 1.4,0.6 2.12,1.76 0.72,1.16 0.72,2.52001 0,1.75999 -1.04,3.31999 -1,1.52 -2.76,2.16 -0.64,0.16 -1.48,0.28 -0.8,0.12 -1.48,0.12 -2.24,0 -4.2,-0.87999 -1.92,-0.92001 -3.28,-2.72001 l 2.8,-1.88 q 0.64,1.32 1.92,2.12 1.28,0.8 2.76,0.8 1.4,0 2.24,-0.6 0.88,-0.59999 1.12,-1.08 0.24,-0.48 0.24,-1 0,-0.84 -0.56,-1.51999 -0.56,-0.72001 -1.56,-1.08001 -1.92,-0.56 -4.04,-1.24 -2.08,-0.68 -3,-1.96 -1.16,-1.48 -1.16,-3.16 0,-2.6 1.68,-3.76 1.72,-1.2 3,-1.44 1.32,-0.24 3.08,-0.24 1.92,0.16 3.2,1.04 1.32,0.88 2.44,2.56 z"
         style="font-style:normal;font-variant:normal;font-weight:normal;font-stretch:normal;font-family:'Futurist Fixed-width';-inkscape-font-specification:'Futurist Fixed-width';fill:#ffcc00"
         id="path28" />
      <path
         d="m 271.31484,289.75437 h -3.32 v 15.8 h -3.24 v -15.8 h -2.92 v -2.56 h 2.92 v -7.47999 h 3.24 v 7.47999 h 3.32 z"
         style="font-style:normal;font-variant:normal;font-weight:normal;font-stretch:normal;font-family:'Futurist Fixed-width';-inkscape-font-specification:'Futurist Fixed-width';fill:#ffcc00"
         id="path30" />
      <path
         d="m 315.07484,301.19437 q -1.68,2.24 -4.08,3.52001 -2.4,1.27999 -5.08,1.27999 -2.56,0 -4.88,-1.24 -2.16,-1.4 -3.28,-3.64 -1.12,-2.24 -1.12,-4.88 0,-3.56 2.04,-6.36 2.08,-2.84 4.24,-3.15999 2.2,-0.36001 3,-0.36001 2.56,0 4.76,1.16 2.24,1.16 3.28,3.56 1.04,2.36 1.04,5.56 h -15.08 q 0,2.72 1.72,4.68 1.72,1.96001 4.32,1.96001 0.8,0 1.44,-0.16001 1.6,-0.24 2.76,-1.12 1.16,-0.92 2.28,-2.44 z m -3.32,-6.96 q -0.44,-2.24 -2.12,-3.63999 -1.68,-1.44 -3.96,-1.44 -2.04,0 -3.6,1.51999 -1.52,1.48001 -2,3.56 z"
         style="font-style:normal;font-variant:normal;font-weight:normal;font-stretch:normal;font-family:'Futurist Fixed-width';-inkscape-font-specification:'Futurist Fixed-width';fill:#ffcc00"
         id="path32" />
      <path
         d="m 352.63484,287.75437 -1.92,2.64 q -1.04,-0.92 -2.16,-0.92 -1.56,0 -2.84,1.56 -1.28,1.52 -1.68,3.36 v 11.16 h -3.24 v -18.44 h 3 v 4.52 q 0.52,-1.84 1.84,-3.32 1.36,-1.52 3.12,-1.76 2.08,0 3.88,1.2 z"
         style="font-style:normal;font-variant:normal;font-weight:normal;font-stretch:normal;font-family:'Futurist Fixed-width';-inkscape-font-specification:'Futurist Fixed-width';fill:#ffcc00"
         id="path34" />
      <path
         d="m 393.75484,305.55437 h -3.08 v -3.68 q -1,2 -2.88,3.08 -1.88,1.04 -4.04,1.04 -1.72,0 -3.36,-0.64 -1.64,-0.63999 -2.96,-1.92 -1.32,-1.32 -2,-3.08 -0.64,-1.8 -0.64,-3.8 0,-3.12 1.52,-5.92 1.16,-1.96 3.24,-3.08 2.08,-1.12 4.36,-1.12 2.36,0 4.32,1.24 0.6,0.44 1.16,1 0.56,0.56 1.28,1.4 v -15.84 h 3.08 z m -4.6,-4.27999 q 1.6,-2.12 1.6,-5.00001 0,-2.43999 -1.32,-4.32 -1.28,-1.92 -3.76,-2.4 -0.72,-0.08 -1.08,-0.08 -2.36,0 -4.16,1.56 -1.76,1.52 -1.96,2.96 -0.16,1.4 -0.2,1.72001 0,0.31999 0,0.55999 0,2.84 1.48,4.92 1.52,2.08001 4.28,2.08001 1.6,0 2.84,-0.44001 1.24,-0.48 2.28,-1.55999 z"
         style="font-style:normal;font-variant:normal;font-weight:normal;font-stretch:normal;font-family:'Futurist Fixed-width';-inkscape-font-specification:'Futurist Fixed-width';fill:#ffcc00"
         id="path36" />
      <path
         d="m 435.07484,301.19437 q -1.68,2.24 -4.08,3.52001 -2.4,1.27999 -5.08,1.27999 -2.56,0 -4.88,-1.24 -2.16,-1.4 -3.28,-3.64 -1.12,-2.24 -1.12,-4.88 0,-3.56 2.04,-6.36 2.08,-2.84 4.24,-3.15999 2.2,-0.36001 3,-0.36001 2.56,0 4.76,1.16 2.24,1.16 3.28,3.56 1.04,2.36 1.04,5.56 h -15.08 q 0,2.72 1.72,4.68 1.72,1.96001 4.32,1.96001 0.8,0 1.44,-0.16001 1.6,-0.24 2.76,-1.12 1.16,-0.92 2.28,-2.44 z m -3.32,-6.96 q -0.44,-2.24 -2.12,-3.63999 -1.68,-1.44 -3.96,-1.44 -2.04,0 -3.6,1.51999 -1.52,1.48001 -2,3.56 z"
         style="font-style:normal;font-variant:normal;font-weight:normal;font-stretch:normal;font-family:'Futurist Fixed-width';-inkscape-font-specification:'Futurist Fixed-width';fill:#ffcc00"
         id="path38" />
      <path
         d="m 473.51484,289.99437 -2.64,1.56 q -0.32,-1.12 -1.64,-1.83999 -1.28,-0.76001 -2.76,-0.76001 -1.04,0 -1.84,0.44 -0.8,0.4 -1.08,1.12 -0.24,0.68 -0.24,1.12 0,1.04 1.2,2.04 l 6.24,2.2 q 1.4,0.6 2.12,1.76 0.72,1.16 0.72,2.52001 0,1.75999 -1.04,3.31999 -1,1.52 -2.76,2.16 -0.64,0.16 -1.48,0.28 -0.8,0.12 -1.48,0.12 -2.24,0 -4.2,-0.87999 -1.92,-0.92001 -3.28,-2.72001 l 2.8,-1.88 q 0.64,1.32 1.92,2.12 1.28,0.8 2.76,0.8 1.4,0 2.24,-0.6 0.88,-0.59999 1.12,-1.08 0.24,-0.48 0.24,-1 0,-0.84 -0.56,-1.51999 -0.56,-0.72001 -1.56,-1.08001 -1.92,-0.56 -4.04,-1.24 -2.08,-0.68 -3,-1.96 -1.16,-1.48 -1.16,-3.16 0,-2.6 1.68,-3.76 1.72,-1.2 3,-1.44 1.32,-0.24 3.08,-0.24 1.92,0.16 3.2,1.04 1.32,0.88 2.44,2.56 z"
         style="font-style:normal;font-variant:normal;font-weight:normal;font-stretch:normal;font-family:'Futurist Fixed-width';-inkscape-font-specification:'Futurist Fixed-width';fill:#ffcc00"
         id="path40" />
      <path
         d="m 516.19484,305.55437 h -5.04 l -9.56,-9.52 v 9.52 h -3.24 v -31.24 h 3.32 v 21.24 l 8.92,-8.28 h 4.56 l -9.52,8.44001 z"
         style="font-style:normal;font-variant:normal;font-weight:normal;font-stretch:normal;font-family:'Futurist Fixed-width';-inkscape-font-specification:'Futurist Fixed-width';fill:#ffcc00"
         id="path42" />
      <path
         d="m 555.11484,286.95437 -12.32,27.52 h -3.64 l 5.44,-11.8 -7.96,-15.72 h 4 l 5.6,12.96 5.24,-12.96 z"
         style="font-style:normal;font-variant:normal;font-weight:normal;font-stretch:normal;font-family:'Futurist Fixed-width';-inkscape-font-specification:'Futurist Fixed-width';fill:#ffcc00"
         id="path44" />
    </g>
  </g>
</svg>
